<svg width="1224" height="495" viewBox="0 0 1224 495" fill="none" xmlns="http://www.w3.org/2000/svg">
<g clip-path="url(#clip0)">
<path d="M-157.488 243.08C-96.2879 250.152 26.1122 301.596 148.512 278.437C270.912 255.278 332.112 120.921 454.512 127.286C576.912 133.65 638.112 318.921 760.512 310.259C882.912 301.596 944.112 91.5749 1066.51 83.9731C1188.91 76.3713 1341.01 268.537 1372.51 272.25C1404.01 275.962 1253.7 136.478 1224 102.536" stroke="#6293C6" stroke-opacity="0.58"/>
<path d="M-188.924 60.991C-127.721 137.539 -5.32081 410.496 117.076 443.732C239.479 476.968 300.679 232.65 423.076 227.17C545.479 221.689 606.679 434.539 729.076 416.33C851.479 398.121 912.679 134.18 1035.08 136.125C1157.48 138.07 1303.29 430.65 1341.08 426.054C1378.86 421.457 1247.42 175.725 1224 113.143" stroke="#6293C6" stroke-opacity="0.58"/>
<path d="M-400.68 364.178C-339.481 320.866 -217.081 143.373 -94.6802 147.616C27.7186 151.859 88.9186 370.719 211.32 385.393C333.719 400.066 394.919 228.23 517.32 220.982C639.719 213.734 700.919 350.919 823.32 349.152C945.719 347.384 1049.18 212.496 1129.32 212.143C1209.46 211.789 1205.06 320.335 1224 347.384" stroke="#6293C6" stroke-opacity="0.58"/>
</g>
<defs>
<clipPath id="clip0">
<rect width="1224" height="495" fill="white"/>
</clipPath>
</defs>
</svg>
