<svg width="35" height="35" viewBox="0 0 35 35" fill="none" xmlns="http://www.w3.org/2000/svg">
<g clip-path="url(#clip0)">
<path d="M26.5996 8.60528L12.4586 0.440911C11.5654 -0.0747928 10.7561 -0.122713 10.1717 0.216897L6.18035 2.5364C6.1822 2.53531 6.18425 2.53449 6.18616 2.53332C5.60593 2.86719 5.24581 3.58121 5.24287 4.59785L5.19679 20.847C5.19098 22.8865 6.62537 25.3709 8.40025 26.3956L22.5413 34.5599C23.4601 35.0903 24.2894 35.1247 24.8771 34.7526C24.8608 34.7629 24.8449 34.774 24.828 34.7839L28.8193 32.4644C29.3962 32.1291 29.7539 31.4163 29.7568 30.403L29.8029 14.1539C29.8088 12.1139 28.3745 9.62999 26.5996 8.60528Z" fill="#155C92"/>
<path d="M28.8194 32.4643L24.8281 34.7838C25.4051 34.4485 25.7629 33.7356 25.7657 32.7224L29.7569 30.403C29.754 31.4161 29.3962 32.129 28.8194 32.4643Z" fill="#1A6FB0"/>
<path d="M6.18018 2.53639L10.1714 0.216958C10.7558 -0.122652 11.5651 -0.0747317 12.4583 0.440971L8.46707 2.76041C7.57389 2.2447 6.76465 2.19671 6.18018 2.53639Z" fill="#1D81CD"/>
<path d="M25.8117 16.4733L29.8029 14.1538L29.7569 30.403L25.7656 32.7224L25.8117 16.4733Z" fill="#1D81CD"/>
<path d="M8.46729 2.7604L12.4586 0.440903L26.5995 8.60527L22.6083 10.9247L8.46729 2.7604Z" fill="#3D99E2"/>
<path d="M22.6079 10.9247L26.5991 8.60527C28.3741 9.62998 29.8083 12.114 29.8026 14.1539L25.8114 16.4733C25.8172 14.4334 24.3828 11.9495 22.6079 10.9247Z" fill="#5AAAE7"/>
<path d="M13.5063 20.2235L13.5164 16.6736L16.184 18.2137L16.1914 15.5956C16.2 12.5571 17.8198 11.8357 20.1785 13.1975C21.3081 13.8497 22.2787 14.5066 22.5619 14.7134L22.5529 17.8883L20.9168 16.9448C19.6344 16.2044 19.384 16.7615 19.3811 17.7891L19.3747 20.0559L22.4335 21.822L22.0254 25.1421L19.3645 23.6059L19.3388 32.7144L16.1481 30.8722L16.1739 21.7637L13.5063 20.2235Z" fill="#3D5A98"/>
<path d="M16.1914 15.6669L16.184 18.2851L13.5164 16.745L13.5063 20.2949L16.1739 21.835L16.1483 30.8688L19.339 32.7109L19.3646 23.6772L22.0254 25.2134L22.4335 21.8933L19.3747 20.1273L19.3811 17.8604C19.384 16.8328 19.6343 16.2757 20.9168 17.0161L22.5529 17.9596L22.5619 14.7847C22.2788 14.5778 21.3081 13.921 20.1785 13.2688C17.8198 11.9071 16.2 12.6286 16.1914 15.6669Z" fill="white"/>
</g>
<defs>
<clipPath id="clip0">
<rect width="35" height="35" fill="white"/>
</clipPath>
</defs>
</svg>
