<svg width="54" height="55" viewBox="0 0 54 55" fill="none" xmlns="http://www.w3.org/2000/svg">
<circle cx="27" cy="27.4597" r="26.5" fill="white" stroke="#3E3D3A"/>
<circle cx="27" cy="27.5647" r="23" fill="#606060"/>
<path d="M24.1603 21.49V30.508C24.1603 31.624 23.8183 32.506 23.1343 33.154C22.4623 33.802 21.5743 34.126 20.4703 34.126C19.3663 34.126 18.4723 33.802 17.7883 33.154C17.1163 32.506 16.7803 31.624 16.7803 30.508H18.8503C18.8623 31.06 19.0003 31.498 19.2643 31.822C19.5403 32.146 19.9423 32.308 20.4703 32.308C20.9983 32.308 21.4003 32.146 21.6763 31.822C21.9523 31.486 22.0903 31.048 22.0903 30.508V21.49H24.1603ZM31.6204 34.126C30.7804 34.126 30.0244 33.982 29.3524 33.694C28.6804 33.394 28.1524 32.974 27.7684 32.434C27.3844 31.894 27.1924 31.264 27.1924 30.544H29.3884C29.4364 31.084 29.6464 31.528 30.0184 31.876C30.4024 32.224 30.9364 32.398 31.6204 32.398C32.3284 32.398 32.8804 32.23 33.2764 31.894C33.6724 31.546 33.8704 31.102 33.8704 30.562C33.8704 30.142 33.7444 29.8 33.4924 29.536C33.2524 29.272 32.9464 29.068 32.5744 28.924C32.2144 28.78 31.7104 28.624 31.0624 28.456C30.2464 28.24 29.5804 28.024 29.0644 27.808C28.5604 27.58 28.1284 27.232 27.7684 26.764C27.4084 26.296 27.2284 25.672 27.2284 24.892C27.2284 24.172 27.4084 23.542 27.7684 23.002C28.1284 22.462 28.6324 22.048 29.2804 21.76C29.9284 21.472 30.6784 21.328 31.5304 21.328C32.7424 21.328 33.7324 21.634 34.5004 22.246C35.2804 22.846 35.7124 23.674 35.7964 24.73H33.5284C33.4924 24.274 33.2764 23.884 32.8804 23.56C32.4844 23.236 31.9624 23.074 31.3144 23.074C30.7264 23.074 30.2464 23.224 29.8744 23.524C29.5024 23.824 29.3164 24.256 29.3164 24.82C29.3164 25.204 29.4304 25.522 29.6584 25.774C29.8984 26.014 30.1984 26.206 30.5584 26.35C30.9184 26.494 31.4104 26.65 32.0344 26.818C32.8624 27.046 33.5344 27.274 34.0504 27.502C34.5784 27.73 35.0224 28.084 35.3824 28.564C35.7544 29.032 35.9404 29.662 35.9404 30.454C35.9404 31.09 35.7664 31.69 35.4184 32.254C35.0824 32.818 34.5844 33.274 33.9244 33.622C33.2764 33.958 32.5084 34.126 31.6204 34.126Z" fill="white"/>
</svg>
