<svg width="35" height="35" viewBox="0 0 35 35" fill="none" xmlns="http://www.w3.org/2000/svg">
<g clip-path="url(#clip0)">
<path d="M26.5996 8.60528L12.4586 0.440911C11.5654 -0.0747928 10.7561 -0.122713 10.1717 0.216897L6.18035 2.5364C6.1822 2.53531 6.18425 2.53449 6.18616 2.53332C5.60593 2.86719 5.24581 3.58121 5.24287 4.59785L5.19679 20.847C5.19098 22.8865 6.62537 25.3709 8.40025 26.3956L22.5413 34.5599C23.4601 35.0903 24.2894 35.1247 24.8771 34.7526C24.8608 34.7629 24.8449 34.774 24.828 34.7839L28.8193 32.4644C29.3962 32.1291 29.7539 31.4163 29.7568 30.403L29.8029 14.1539C29.8088 12.1139 28.3744 9.62999 26.5996 8.60528Z" fill="#8AC832"/>
<path d="M28.8194 32.4643L24.8281 34.7838C25.4051 34.4485 25.7629 33.7356 25.7657 32.7224L29.7569 30.403C29.754 31.4161 29.3962 32.129 28.8194 32.4643Z" fill="#669D19"/>
<path d="M6.18018 2.53639L10.1714 0.216958C10.7558 -0.122652 11.5651 -0.0747317 12.4583 0.440971L8.46707 2.7604C7.57389 2.2447 6.76465 2.19671 6.18018 2.53639Z" fill="#70AD1A"/>
<path d="M25.8117 16.4733L29.8029 14.1538L29.7569 30.403L25.7656 32.7224L25.8117 16.4733Z" fill="#70AD1A"/>
<path d="M8.46729 2.7604L12.4586 0.440903L26.5995 8.60527L22.6083 10.9247L8.46729 2.7604Z" fill="#97D73B"/>
<path d="M22.6079 10.9247L26.5991 8.60527C28.3741 9.62998 29.8083 12.114 29.8026 14.1539L25.8114 16.4733C25.8172 14.4334 24.3828 11.9495 22.6079 10.9247Z" fill="#A8E74F"/>
<path d="M9.09279 22.5998L9.12096 12.6628L11.8086 14.2145L11.7805 24.1516L9.09279 22.5998ZM16.0689 18.0343L16.1046 18.0549C16.4651 17.4805 17.3446 17.1631 18.6521 17.9179C21.3735 19.4892 21.8704 21.8374 21.8628 24.5132L21.8473 29.9637L19.1613 28.4129L19.175 23.5806C19.1783 22.4277 19.1642 20.9349 17.786 20.1392C16.3874 19.3317 16.1696 20.4636 16.1659 21.7594L16.1519 26.6753L13.4663 25.1247L13.4944 15.1877L16.0728 16.6763L16.0689 18.0343ZM10.4693 12.0806C9.60795 11.5833 8.9128 10.3782 8.91554 9.38943C8.91834 8.40198 9.61806 8.00235 10.4794 8.49966C11.3387 8.99582 12.0347 10.2013 12.0319 11.1886C12.0292 12.1775 11.3287 12.5767 10.4693 12.0806Z" fill="#0065A1"/>
<path d="M11.8086 14.2146L9.12089 12.6628L9.09272 22.5999L11.7804 24.1516L11.8086 14.2146ZM10.4794 8.49965C9.61806 8.00234 8.91834 8.40203 8.91554 9.38942C8.91273 10.3783 9.60788 11.5833 10.4693 12.0806C11.3285 12.5767 12.0291 12.1775 12.0319 11.1886C12.0346 10.2013 11.3387 8.99574 10.4794 8.49965Z" fill="white"/>
<path d="M18.6522 17.918C17.3447 17.1631 16.4652 17.4805 16.1047 18.055L16.069 18.0343L16.0728 16.6763L13.4945 15.1877L13.4663 25.1247L16.1519 26.6753L16.1659 21.7594C16.1695 20.4636 16.3874 19.3317 17.786 20.1392C19.1642 20.9349 19.1783 22.4278 19.1751 23.5806L19.1613 28.4129L21.8474 29.9637L21.8628 24.5132C21.8705 21.8375 21.3736 19.4893 18.6522 17.918Z" fill="white"/>
</g>
<defs>
<clipPath id="clip0">
<rect width="35" height="35" fill="white"/>
</clipPath>
</defs>
</svg>
