<svg width="54" height="55" viewBox="0 0 54 55" fill="none" xmlns="http://www.w3.org/2000/svg">
<circle cx="27" cy="27.4597" r="26.5" fill="white" stroke="#3E3D3A"/>
<circle cx="27" cy="27.5647" r="23" fill="#606060"/>
<path d="M20.5472 25.216C20.5472 25.852 20.3972 26.452 20.0972 27.016C19.7972 27.58 19.3172 28.042 18.6572 28.402C17.9972 28.75 17.1512 28.924 16.1192 28.924H13.8512V34H11.7992V21.49H16.1192C17.0792 21.49 17.8892 21.658 18.5492 21.994C19.2212 22.318 19.7192 22.762 20.0432 23.326C20.3792 23.89 20.5472 24.52 20.5472 25.216ZM16.1192 27.25C16.8992 27.25 17.4812 27.076 17.8652 26.728C18.2492 26.368 18.4412 25.864 18.4412 25.216C18.4412 23.848 17.6672 23.164 16.1192 23.164H13.8512V27.25H16.1192ZM32.4943 21.49V34H30.4423V28.528H24.5563V34H22.5043V21.49H24.5563V26.854H30.4423V21.49H32.4943ZM43.9437 25.216C43.9437 25.852 43.7937 26.452 43.4937 27.016C43.1937 27.58 42.7137 28.042 42.0537 28.402C41.3937 28.75 40.5477 28.924 39.5157 28.924H37.2477V34H35.1957V21.49H39.5157C40.4757 21.49 41.2857 21.658 41.9457 21.994C42.6177 22.318 43.1157 22.762 43.4397 23.326C43.7757 23.89 43.9437 24.52 43.9437 25.216ZM39.5157 27.25C40.2957 27.25 40.8777 27.076 41.2617 26.728C41.6457 26.368 41.8377 25.864 41.8377 25.216C41.8377 23.848 41.0637 23.164 39.5157 23.164H37.2477V27.25H39.5157Z" fill="white"/>
</svg>
